<svg xmlns="http://www.w3.org/2000/svg" viewBox="0 0 32 32" shape-rendering="crispEdges"><title>MIONA #0372</title><rect width="32" height="32" fill="#060706"/><path d="M0 4H32M0 8H32M0 12H32M0 16H32M0 20H32M0 24H32M0 28H32M4 0V32M8 0V32M12 0V32M16 0V32M20 0V32M24 0V32M28 0V32" stroke="#242822" stroke-width=".35"/><g fill="#f2f4eb"><rect x="15" y="5" width="2" height="4"/><path d="M11 5h10v1H11zM13 3h6v1h-6z"/><rect x="7" y="8" width="18" height="15"/><rect x="5" y="10" width="2" height="11"/><rect x="25" y="10" width="2" height="11"/><rect x="8" y="23" width="5" height="3"/><rect x="19" y="23" width="5" height="3"/><path d="M8 9h2v2H8zM22 9h2v2h-2z" fill="#bfc4ba"/></g><g fill="#050604"><rect x="10" y="11" width="12" height="7"/></g><g fill="#c6f700"><rect x="13" y="13" width="2" height="2"/><rect x="18" y="13" width="2" height="2"/></g><rect x="1" y="1" width="30" height="30" fill="none" stroke="#c6f700" stroke-width=".25" opacity="0.18"/></svg>