<svg xmlns="http://www.w3.org/2000/svg" viewBox="0 0 32 32" shape-rendering="crispEdges"><title>MIONA #0834</title><rect width="32" height="32" fill="#0a0c09"/><path d="M2 2h2v2H2zM27 5h1v1h-1zM4 25h1v1H4zM25 27h3v1h-3zM16 3h1v2h-1z" fill="#c6f700" opacity=".55"/><g fill="#f2f4eb"><rect x="15" y="5" width="2" height="4"/><path d="M11 5h10v1H11zM13 3h6v1h-6z"/><rect x="3" y="12" width="5" height="3"/><rect x="24" y="12" width="5" height="3"/><rect x="9" y="9" width="14" height="12"/><rect x="7" y="12" width="2" height="6"/><rect x="23" y="12" width="2" height="6"/><rect x="11" y="21" width="3" height="4"/><rect x="18" y="21" width="3" height="4"/></g><g fill="#050604"><rect x="10" y="11" width="12" height="7"/></g><g fill="#eaff9b"><rect x="13" y="13" width="2" height="2"/><rect x="18" y="13" width="2" height="2"/></g><rect x="1" y="1" width="30" height="30" fill="none" stroke="#c6f700" stroke-width=".25" opacity="0.18"/></svg>