<svg xmlns="http://www.w3.org/2000/svg" viewBox="0 0 32 32" shape-rendering="crispEdges"><title>MIONA #0973</title><rect width="32" height="32" fill="#11130f"/><path d="M0 16H32M16 0V32" stroke="#c6f700" stroke-width=".5" opacity=".28"/><g fill="#f2f4eb"><rect x="11" y="3" width="10" height="5"/><rect x="13" y="4" width="6" height="3" fill="#050604"/><rect x="3" y="12" width="5" height="3"/><rect x="24" y="12" width="5" height="3"/><rect x="7" y="10" width="18" height="11"/><rect x="5" y="13" width="2" height="5"/><rect x="25" y="13" width="2" height="5"/><rect x="9" y="21" width="4" height="3"/><rect x="19" y="21" width="4" height="3"/></g><g fill="#050604"><rect x="10" y="11" width="12" height="7"/></g><g fill="#b4e000"><rect x="13" y="13" width="2" height="2"/><rect x="18" y="13" width="2" height="2"/></g><rect x="1" y="1" width="30" height="30" fill="none" stroke="#c6f700" stroke-width=".25" opacity="0.18"/></svg>