<svg xmlns="http://www.w3.org/2000/svg" viewBox="0 0 32 32" shape-rendering="crispEdges"><title>MIONA #1719</title><rect width="32" height="32" fill="#090b08"/><path d="M2 2h2v2H2zM27 5h1v1h-1zM4 25h1v1H4zM25 27h3v1h-3zM16 3h1v2h-1z" fill="#c6f700" opacity=".55"/><g fill="#f2f4eb"><rect x="15" y="5" width="2" height="4"/><rect x="14" y="3" width="4" height="2"/><rect x="3" y="8" width="4" height="4"/><rect x="25" y="8" width="4" height="4"/><rect x="2" y="21" width="4" height="4"/><rect x="26" y="21" width="4" height="4"/><rect x="7" y="8" width="18" height="15"/><rect x="5" y="10" width="2" height="11"/><rect x="25" y="10" width="2" height="11"/><rect x="8" y="23" width="5" height="3"/><rect x="19" y="23" width="5" height="3"/><path d="M8 9h2v2H8zM22 9h2v2h-2z" fill="#bfc4ba"/></g><g fill="#050604"><rect x="10" y="11" width="12" height="7"/></g><g fill="#f2f4eb"><rect x="13" y="13" width="2" height="2"/><rect x="18" y="13" width="2" height="2"/></g><rect x="1" y="1" width="30" height="30" fill="none" stroke="#c6f700" stroke-width=".25" opacity="0.18"/></svg>