<svg xmlns="http://www.w3.org/2000/svg" viewBox="0 0 32 32" shape-rendering="crispEdges"><title>MIONA #2198</title><rect width="32" height="32" fill="#e9ece3"/><path d="M0 4H32M0 8H32M0 12H32M0 16H32M0 20H32M0 24H32M0 28H32M4 0V32M8 0V32M12 0V32M16 0V32M20 0V32M24 0V32M28 0V32" stroke="#cbd0c4" stroke-width=".35"/><g fill="#f2f4eb"><rect x="15" y="5" width="2" height="4"/><rect x="14" y="3" width="4" height="2"/><path d="M7 13H3v-2H1v7h2v-2h4zM25 13h4v-2h2v7h-2v-2h-4z"/><rect x="10" y="6" width="12" height="18"/><rect x="8" y="11" width="2" height="7"/><rect x="22" y="11" width="2" height="7"/><rect x="11" y="24" width="3" height="3"/><rect x="18" y="24" width="3" height="3"/></g><g fill="#151713"><rect x="12" y="9" width="8" height="10"/></g><g fill="#eaff9b"><rect x="14" y="11" width="1" height="2"/><rect x="17" y="11" width="1" height="2"/></g><rect x="1" y="1" width="30" height="30" fill="none" stroke="#c6f700" stroke-width=".25" opacity="0.18"/></svg>