<svg xmlns="http://www.w3.org/2000/svg" viewBox="0 0 32 32" shape-rendering="crispEdges"><title>MIONA #2475</title><rect width="32" height="32" fill="#10140a"/><path d="M0 5h8v1H0zM24 9h8v1h-8zM0 25h11v1H0zM21 28h11v1H21z" fill="#c6f700" opacity=".35"/><g fill="#f2f4eb"><rect x="14" y="2" width="4" height="2"/><rect x="13" y="4" width="6" height="2"/><rect x="15" y="6" width="2" height="3"/><path d="M7 13H3v-2H1v7h2v-2h4zM25 13h4v-2h2v7h-2v-2h-4z"/><rect x="10" y="8" width="12" height="13"/><rect x="6" y="11" width="4" height="4"/><rect x="22" y="11" width="4" height="4"/><rect x="12" y="21" width="2" height="5"/><rect x="18" y="21" width="2" height="5"/></g><g fill="#050604"><rect x="10" y="11" width="12" height="7"/></g><g fill="#f2f4eb"><rect x="13" y="13" width="2" height="2"/><rect x="18" y="13" width="2" height="2"/></g><path d="M3 4h1v1H3zM27 5h2v2h-2zM4 27h2v2H4zM28 25h1v1h-1z" fill="#c6f700"/><rect x="1" y="1" width="30" height="30" fill="none" stroke="#c6f700" stroke-width=".25" opacity="0.18"/></svg>