<svg xmlns="http://www.w3.org/2000/svg" viewBox="0 0 32 32" shape-rendering="crispEdges"><title>MIONA #2783</title><rect width="32" height="32" fill="#090b08"/><path d="M2 2h2v2H2zM27 5h1v1h-1zM4 25h1v1H4zM25 27h3v1h-3zM16 3h1v2h-1z" fill="#c6f700" opacity=".55"/><g fill="#f2f4eb"><path d="M12 9V6h-2V4M20 9V6h2V4" stroke="#f2f4eb" stroke-width="2" fill="none"/><path d="M8 12L2 9v8l6-2zM24 12l6-3v8l-6-2z"/><rect x="8" y="8" width="7" height="14"/><rect x="17" y="8" width="7" height="14"/><rect x="6" y="12" width="2" height="5"/><rect x="24" y="12" width="2" height="5"/><rect x="10" y="22" width="3" height="3"/><rect x="19" y="22" width="3" height="3"/></g><g fill="#050604"><rect x="10" y="11" width="12" height="7"/></g><g fill="#f2f4eb"><rect x="13" y="13" width="2" height="2"/><rect x="18" y="13" width="2" height="2"/></g><path d="M3 4h1v1H3zM27 5h2v2h-2zM4 27h2v2H4zM28 25h1v1h-1z" fill="#c6f700"/><rect x="1" y="1" width="30" height="30" fill="none" stroke="#c6f700" stroke-width=".25" opacity="0.18"/></svg>