<svg xmlns="http://www.w3.org/2000/svg" viewBox="0 0 32 32" shape-rendering="crispEdges"><title>MIONA #3278</title><rect width="32" height="32" fill="#e9ece3"/><path d="M0 4H32M0 8H32M0 12H32M0 16H32M0 20H32M0 24H32M0 28H32M4 0V32M8 0V32M12 0V32M16 0V32M20 0V32M24 0V32M28 0V32" stroke="#cbd0c4" stroke-width=".35"/><g fill="#f2f4eb"><path d="M12 9V6h-2V4M20 9V6h2V4" stroke="#f2f4eb" stroke-width="2" fill="none"/><rect x="3" y="7" width="4" height="4"/><rect x="25" y="7" width="4" height="4"/><rect x="3" y="20" width="4" height="4"/><rect x="25" y="20" width="4" height="4"/><rect x="7" y="10" width="18" height="11"/><rect x="5" y="13" width="2" height="5"/><rect x="25" y="13" width="2" height="5"/><rect x="9" y="21" width="4" height="3"/><rect x="19" y="21" width="4" height="3"/></g><g fill="#151713"><rect x="10" y="11" width="12" height="7"/></g><g fill="#eaff9b"><rect x="13" y="13" width="2" height="2"/><rect x="18" y="13" width="2" height="2"/></g><path d="M3 4h1v1H3zM27 5h2v2h-2zM4 27h2v2H4zM28 25h1v1h-1z" fill="#c6f700"/><rect x="1" y="1" width="30" height="30" fill="none" stroke="#c6f700" stroke-width=".25" opacity="0.18"/></svg>